{"glyphs":{":":{"x_min":0,"x_max":277,"ha":277,"o":"m 90 418 l 90 519 l 190 519 l 190 418 z m 90 0 l 90 100 l 190 100 l 190 0 z"},"$":{"x_min":0,"x_max":556,"ha":556,"o":"m 249 -103 l 249 -15 q 183 -7 142 14 q 101 36 71 83 q 41 130 36 199 l 124 215 q 134 145 160 111 q 197 64 249 59 l 249 339 q 195 349 138 381 q 96 404 74 446 q 51 487 51 540 q 51 634 117 692 q 162 731 249 740 l 249 782 l 301 782 l 301 740 q 377 732 422 695 q 480 647 492 563 l 401 550 q 393 602 368 630 q 344 657 301 666 l 301 412 q 367 396 389 386 q 430 368 456 342 q 481 316 495 280 q 509 245 509 204 q 509 112 451 51 q 393 -10 301 -14 l 301 -103 z m 249 667 q 198 659 168 626 q 139 592 139 547 q 139 502 164 472 q 189 441 249 423 z m 301 59 q 352 65 386 104 q 419 142 419 198 q 419 246 396 275 q 372 304 301 327 z"},"?":{"x_min":0,"x_max":531,"ha":531,"o":"m 214 176 q 214 194 214 203 q 214 254 229 292 q 239 320 263 349 q 281 370 326 410 q 372 451 386 475 q 400 499 400 527 q 400 578 360 617 q 319 656 261 656 q 205 656 168 620 q 130 585 118 511 l 28 521 q 40 622 100 675 q 161 728 260 728 q 365 728 428 671 q 490 614 490 533 q 490 486 468 446 q 446 407 382 350 q 339 312 326 294 q 313 276 306 252 q 300 229 299 176 z m 209 0 l 209 100 l 309 100 l 309 0 z"},"<":{"x_min":0,"x_max":583,"ha":583,"o":"m 55 313 l 55 395 l 529 595 l 529 508 l 153 354 l 529 198 l 529 110 z"},"'":{"x_min":0,"x_max":190,"ha":190,"o":"m 66 57 l 44 405 l 44 716 l 144 716 l 144 405 l 121 57 z"},"=":{"x_min":0,"x_max":583,"ha":583,"o":"m 528 421 l 56 421 l 56 503 l 528 503 z m 528 204 l 56 204 l 56 286 l 528 286 z"},"a":{"x_min":0,"x_max":777,"ha":777,"o":"m 309 2 l 309 352 q 309 385 333 408 q 352 432 386 432 q 423 432 442 404 q 462 375 462 314 l 462 0 l 735 0 l 735 260 q 735 302 733 334 q 731 365 731 389 q 728 405 724 424 q 721 442 716 465 q 678 579 593 643 q 498 709 386 709 q 286 709 210 660 q 127 610 83 529 q 69 503 60 480 q 50 458 46 439 q 34 392 34 346 q 34 192 132 94 q 205 20 309 2 z"},"L":{"x_min":0,"x_max":425,"ha":425,"o":"m 390 0 l 390 275 q 349 275 331 303 q 313 331 313 391 l 313 965 l 40 965 l 40 445 q 40 402 41 370 q 42 338 44 318 q 46 301 50 282 q 54 264 60 242 q 93 132 183 64 q 269 0 390 0 z"},"3":{"x_min":0,"x_max":587,"ha":587,"o":"m 67 709 l 67 514 l 285 514 l 123 395 l 123 287 l 260 287 q 292 287 309 275 q 326 266 326 244 q 326 223 307 211 q 289 199 252 199 l 49 199 l 49 0 l 315 0 q 419 0 483 61 q 545 120 545 219 q 545 297 508 346 q 474 390 399 410 l 490 484 q 513 501 526 527 q 537 554 537 580 q 537 641 490 674 q 443 709 360 709 z"},";":{"x_min":0,"x_max":277,"ha":277,"o":"m 89 418 l 89 519 l 189 519 l 189 418 z m 89 0 l 89 100 l 189 100 l 189 0 q 189 -55 170 -89 q 150 -123 107 -142 l 83 -104 q 111 -92 124 -68 q 137 -44 139 0 z"},"J":{"x_min":0,"x_max":751,"ha":751,"o":"m 707 -93 l 707 -87 l 707 623 l 429 623 l 429 -30 q 429 -64 414 -77 q 395 -93 357 -93 l 238 -93 l 5 -93 q 21 -197 96 -272 q 189 -370 347 -370 q 396 -370 443 -358 q 466 -351 489 -342 q 512 -334 535 -323 q 616 -272 668 -194 q 668 -187 687 -150 q 707 -112 707 -93 z m 461 885 q 461 835 492 803 q 524 768 566 768 q 608 768 640 801 q 672 835 672 885 q 672 935 640 967 q 608 1000 566 1000 q 525 1000 492 967 q 461 933 461 885 z"},"V":{"x_min":0,"x_max":772,"ha":772,"o":"m 461 709 l 461 357 q 461 322 439 301 q 416 277 386 277 q 344 277 328 307 q 310 332 310 389 l 310 709 l 29 709 l 164 188 q 189 82 240 43 q 290 0 384 0 q 479 0 531 41 q 577 81 609 188 l 742 709 z"},"\"":{"x_min":0,"x_max":354,"ha":354,"o":"m 70 462 l 46 599 l 46 716 l 146 716 l 146 599 l 124 462 z m 232 462 l 208 599 l 208 716 l 308 716 l 308 599 l 285 462 z"},"7":{"x_min":0,"x_max":625,"ha":625,"o":"m 21 508 l 349 508 l 166 0 l 402 0 l 589 557 q 589 557 590 562 q 592 566 595 574 l 595 596 q 595 654 556 680 q 516 709 439 709 l 267 709 q 201 709 142 674 q 85 640 48 576 q 29 542 21 508 z"},"S":{"x_min":0,"x_max":796,"ha":796,"o":"m 382 0 q 436 0 474 2 q 513 4 542 10 q 598 17 640 39 q 697 65 725 109 q 757 153 757 201 q 757 311 526 418 l 522 418 l 485 436 q 479 438 476 440 q 472 441 470 445 q 464 451 464 457 q 464 466 475 477 q 488 482 503 482 l 710 482 l 710 709 l 356 709 q 205 709 120 658 q 36 607 36 520 q 36 458 77 414 q 116 372 253 311 l 296 293 q 306 285 311 281 q 317 275 317 268 q 317 256 306 250 q 294 244 272 244 l 38 242 q 51 152 130 86 q 230 0 382 0 z"},"}":{"x_min":0,"x_max":333,"ha":333,"o":"m 306 299 l 306 219 q 268 218 244 198 q 221 179 213 146 q 205 112 204 30 q 204 -51 202 -77 q 197 -118 185 -142 q 173 -167 156 -182 q 138 -197 111 -205 q 92 -210 50 -210 l 23 -210 l 23 -134 l 38 -134 q 89 -134 106 -116 q 122 -97 122 -33 q 122 89 126 122 q 134 176 158 208 q 181 241 224 259 q 168 286 145 330 q 122 374 122 479 q 122 574 120 593 q 116 625 100 638 q 84 651 38 651 l 23 651 l 23 728 l 50 728 q 98 728 120 720 q 151 709 172 684 q 192 659 198 620 q 204 582 204 494 q 205 406 213 372 q 221 339 244 320 q 268 300 306 299 z"},"Z":{"x_min":0,"x_max":813,"ha":813,"o":"m 427 0 q 576 0 679 86 q 752 147 771 242 l 536 242 q 514 242 503 250 q 492 256 492 268 q 492 274 497 281 q 497 284 513 291 l 554 311 q 685 365 732 412 q 771 457 771 518 q 771 605 687 656 q 605 705 452 705 l 99 705 l 99 482 l 306 482 q 323 482 333 475 q 345 464 345 455 q 345 449 339 443 q 334 438 324 434 l 286 418 l 283 416 q 54 311 54 201 q 54 147 85 109 q 113 66 169 39 q 214 17 267 10 q 294 4 332 2 q 370 0 427 0 z"},"x":{"x_min":0,"x_max":805,"ha":805,"o":"m 409 592 q 369 632 322 660 q 302 671 280 680 q 257 688 232 695 q 185 709 136 709 l 54 709 l 54 430 l 113 430 q 166 430 195 412 q 224 395 224 354 q 224 320 199 301 q 175 277 142 277 l 54 277 l 54 0 l 136 0 q 185 0 232 12 q 287 27 322 49 q 366 70 409 117 q 448 75 497 49 q 535 26 587 12 q 633 0 683 0 l 765 0 l 765 277 l 677 277 q 644 277 620 301 q 597 321 597 354 q 597 392 624 412 q 654 430 706 430 l 765 430 l 765 709 l 683 709 q 632 709 587 695 q 542 685 497 660 q 470 643 448 626 q 426 609 409 592 z"},")":{"x_min":0,"x_max":333,"ha":333,"o":"m 124 -210 l 61 -210 q 207 24 207 259 q 207 351 186 441 q 169 514 139 582 q 120 625 61 728 l 124 728 q 215 605 259 482 q 297 375 297 259 q 297 127 246 4 q 196 -119 124 -210 z"},"&":{"x_min":0,"x_max":666,"ha":666,"o":"m 475 84 q 432 36 380 12 q 329 -12 270 -12 q 160 -12 95 62 q 43 123 43 197 q 43 264 86 318 q 128 371 213 411 q 165 467 149 502 q 133 536 133 568 q 133 633 184 680 q 234 728 311 728 q 384 728 430 683 q 477 638 477 575 q 477 473 342 401 l 470 237 q 492 280 504 337 l 596 317 q 572 224 532 163 q 582 98 644 53 l 585 -17 q 532 18 475 84 z m 296 458 q 354 491 370 516 q 387 542 387 573 q 387 609 364 632 q 341 656 306 656 q 271 656 247 633 q 223 610 223 577 q 223 560 232 542 q 240 523 257 503 z m 420 154 l 259 354 q 188 311 163 274 q 138 238 138 203 q 138 159 172 112 q 207 65 271 65 q 310 65 352 90 q 395 115 420 154 z"},"_":{"x_min":0,"x_max":556,"ha":556,"o":"m -15 -199 l -15 -135 l 567 -135 l 567 -199 z"},"v":{"x_min":0,"x_max":772,"ha":772,"o":"m 461 709 l 461 357 q 461 322 439 301 q 416 277 386 277 q 344 277 328 307 q 310 332 310 389 l 310 709 l 29 709 l 164 188 q 189 82 240 43 q 290 0 384 0 q 479 0 531 41 q 577 81 609 188 l 742 709 z"},"O":{"x_min":0,"x_max":758,"ha":758,"o":"m 311 355 q 311 388 331 408 q 347 430 378 430 q 409 430 429 410 q 448 384 448 355 q 448 326 429 301 q 407 279 378 279 q 352 279 331 301 q 311 323 311 355 z m 34 354 q 34 284 59 219 q 84 153 136 104 q 188 49 247 25 q 313 0 378 0 q 446 0 511 27 q 572 52 624 104 q 649 129 667 157 q 685 185 698 217 q 723 276 723 354 q 723 428 698 488 q 671 553 622 605 q 577 653 511 682 q 446 709 378 709 q 313 709 247 682 q 182 653 136 605 q 82 550 59 490 q 34 421 34 354 z"},"(":{"x_min":0,"x_max":333,"ha":333,"o":"m 234 -210 q 161 -119 111 4 q 61 127 61 259 q 61 375 98 482 q 142 605 234 728 l 297 728 q 238 626 219 583 q 189 516 172 442 q 151 351 151 259 q 151 24 297 -210 z"},"C":{"x_min":0,"x_max":810,"ha":810,"o":"m 45 354 q 45 257 92 178 q 143 94 225 49 q 261 27 316 12 q 362 0 410 0 q 566 0 664 98 q 735 169 758 277 l 404 277 q 370 277 348 301 q 324 320 324 354 q 324 393 352 412 q 380 430 436 430 l 758 430 q 735 536 664 609 q 567 709 410 709 q 361 709 316 695 q 292 688 270 680 q 247 671 225 660 q 143 614 92 531 q 45 448 45 354 z"},"W":{"x_min":0,"x_max":1215,"ha":1215,"o":"m 898 707 l 898 357 q 898 323 876 301 q 853 277 821 277 q 781 277 765 305 q 753 318 747 359 l 747 363 q 747 377 746 387 q 746 397 745 402 l 745 709 l 472 709 l 472 449 l 472 410 l 472 357 q 472 323 450 301 q 427 277 398 277 q 357 277 339 305 q 321 333 321 393 l 321 709 l 46 709 l 46 449 q 46 360 52 320 q 53 282 67 244 q 99 131 191 66 q 276 0 398 0 q 491 0 571 47 q 581 53 590 59 q 600 65 609 72 q 609 66 614 66 q 702 0 821 0 q 917 0 997 47 q 1071 91 1126 178 q 1136 199 1146 222 q 1155 246 1161 270 q 1173 313 1173 363 q 1173 514 1075 615 q 1004 686 898 707 z"},"A":{"x_min":0,"x_max":777,"ha":777,"o":"m 309 2 l 309 352 q 309 385 333 408 q 352 432 386 432 q 423 432 442 404 q 462 375 462 314 l 462 0 l 735 0 l 735 260 q 735 302 733 334 q 731 365 731 389 q 728 405 724 424 q 721 442 716 465 q 678 579 593 643 q 498 709 386 709 q 286 709 210 660 q 127 610 83 529 q 69 503 60 480 q 50 458 46 439 q 34 392 34 346 q 34 192 132 94 q 205 20 309 2 z"},"f":{"x_min":0,"x_max":763,"ha":763,"o":"m 320 617 l 320 621 q 320 651 338 668 q 352 682 393 682 l 488 682 l 756 682 q 733 790 664 861 q 566 959 410 959 q 361 959 315 947 q 270 937 225 912 q 143 863 92 783 q 45 700 45 605 l 45 604 l 45 0 l 320 0 l 320 408 l 488 408 l 488 617 z"},"Q":{"x_min":0,"x_max":768,"ha":768,"o":"m 310 348 q 310 379 332 404 q 354 428 387 428 q 424 428 445 400 q 463 373 463 313 l 463 -263 l 738 -263 l 738 256 q 738 344 732 385 q 727 419 717 463 q 683 572 594 641 q 506 705 387 705 q 310 705 252 678 q 220 665 192 646 q 163 627 137 602 q 88 550 62 484 q 35 416 35 348 q 35 188 135 88 q 208 13 310 0 z"},"w":{"x_min":0,"x_max":1215,"ha":1215,"o":"m 898 707 l 898 357 q 898 323 876 301 q 853 277 821 277 q 781 277 765 305 q 753 318 747 359 l 747 363 q 747 377 746 387 q 746 397 745 402 l 745 709 l 472 709 l 472 449 l 472 410 l 472 357 q 472 323 450 301 q 427 277 398 277 q 357 277 339 305 q 321 333 321 393 l 321 709 l 46 709 l 46 449 q 46 360 52 320 q 53 282 67 244 q 99 131 191 66 q 276 0 398 0 q 491 0 571 47 q 581 53 590 59 q 600 65 609 72 q 609 66 614 66 q 702 0 821 0 q 917 0 997 47 q 1071 91 1126 178 q 1136 199 1146 222 q 1155 246 1161 270 q 1173 313 1173 363 q 1173 514 1075 615 q 1004 686 898 707 z"},"-":{"x_min":0,"x_max":333,"ha":333,"o":"m 32 215 l 32 303 l 302 303 l 302 215 z"},"E":{"x_min":0,"x_max":763,"ha":763,"o":"m 279 354 l 279 430 q 279 465 301 486 q 320 510 350 510 q 379 510 400 488 q 422 460 422 430 l 420 396 l 713 396 l 713 430 q 695 535 621 609 q 521 709 367 709 q 316 709 271 695 q 247 688 224 680 q 202 671 180 660 q 93 608 47 531 q 0 448 0 354 q 0 232 66 145 q 136 51 246 21 q 285 7 324 6 q 364 0 453 0 l 715 0 l 715 277 l 396 277 q 334 277 309 295 q 279 314 279 354 z"},"s":{"x_min":0,"x_max":796,"ha":796,"o":"m 382 0 q 436 0 474 2 q 513 4 542 10 q 598 17 640 39 q 697 65 725 109 q 757 153 757 201 q 757 311 526 418 l 522 418 l 485 436 q 479 438 476 440 q 472 441 470 445 q 464 451 464 457 q 464 466 475 477 q 488 482 503 482 l 710 482 l 710 709 l 356 709 q 205 709 120 658 q 36 607 36 520 q 36 458 77 414 q 116 372 253 311 l 296 293 q 306 285 311 281 q 317 275 317 268 q 317 256 306 250 q 294 244 272 244 l 38 242 q 51 152 130 86 q 230 0 382 0 z"},">":{"x_min":0,"x_max":583,"ha":583,"o":"m 529 313 l 55 110 l 55 198 l 430 354 l 55 508 l 55 595 l 529 395 z"},"l":{"x_min":0,"x_max":425,"ha":425,"o":"m 390 0 l 390 275 q 349 275 331 303 q 313 331 313 391 l 313 965 l 40 965 l 40 445 q 40 402 41 370 q 42 338 44 318 q 46 301 50 282 q 54 264 60 242 q 93 132 183 64 q 269 0 390 0 z"},"8":{"x_min":0,"x_max":604,"ha":604,"o":"m 251 250 q 251 270 267 285 q 281 299 302 299 q 325 299 339 285 q 354 270 354 250 q 354 229 339 213 q 325 199 302 199 q 281 199 267 213 q 251 229 251 250 z m 257 496 q 257 516 268 527 q 281 539 302 539 q 321 539 333 527 q 347 516 347 496 q 347 478 333 467 q 321 455 302 455 q 282 455 270 467 q 257 477 257 496 z m 130 396 q 85 373 61 330 q 38 284 38 232 q 38 123 108 63 q 178 0 302 0 q 423 0 495 63 q 565 123 565 232 q 565 284 542 330 q 518 367 474 396 q 504 421 522 451 q 538 483 538 520 q 538 600 472 656 q 407 709 302 709 q 197 709 132 656 q 65 598 65 520 q 65 479 83 451 q 100 418 130 396 z"},"\\":{"x_min":0,"x_max":583,"ha":583,"o":"m 250 -12 l 42 728 l 113 728 l 320 -12 z"},"e":{"x_min":0,"x_max":854,"ha":854,"o":"m 369 354 l 369 430 q 369 465 391 486 q 410 510 440 510 q 469 510 490 488 q 512 460 512 430 l 510 396 l 803 396 l 803 430 q 785 535 711 609 q 611 709 457 709 q 406 709 361 695 q 337 688 314 680 q 292 671 270 660 q 183 608 137 531 q 90 448 90 354 q 90 232 156 145 q 226 51 336 21 q 375 7 414 6 q 454 0 543 0 l 805 0 l 805 277 l 486 277 q 424 277 399 295 q 369 314 369 354 z"},"b":{"x_min":0,"x_max":764,"ha":764,"o":"m 472 357 q 472 323 448 301 q 427 277 396 277 q 355 277 337 305 q 319 330 319 393 l 319 969 l 44 969 l 44 449 q 44 404 45 372 q 46 340 48 320 q 50 303 54 284 q 58 266 64 244 q 97 130 187 66 q 274 0 394 0 q 460 0 528 27 q 587 50 644 104 q 691 151 720 221 q 745 280 745 357 q 745 517 648 617 q 574 686 472 707 z"},"%":{"x_min":0,"x_max":889,"ha":889,"o":"m 58 544 q 58 621 96 674 q 135 728 208 728 q 276 728 320 680 q 364 632 364 539 q 364 448 320 399 q 275 350 209 350 q 145 350 102 398 q 58 446 58 544 z m 211 667 q 178 667 156 639 q 135 611 135 535 q 135 466 157 438 q 179 410 211 410 q 244 410 266 438 q 288 467 288 542 q 288 611 266 639 q 244 667 211 667 z m 211 -26 l 603 728 l 674 728 l 284 -26 z m 521 168 q 521 245 560 298 q 598 352 672 352 q 739 352 784 304 q 828 256 828 163 q 828 72 783 23 q 738 -26 672 -26 q 607 -26 564 22 q 521 71 521 168 z m 674 292 q 641 292 620 264 q 598 235 598 159 q 598 91 620 62 q 642 34 674 34 q 708 34 730 62 q 751 91 751 166 q 751 235 729 264 q 707 292 674 292 z"},"m":{"x_min":0,"x_max":1209,"ha":1209,"o":"m 907 2 q 1010 20 1084 94 q 1182 192 1182 346 q 1182 392 1170 439 q 1164 463 1154 484 q 1145 506 1135 529 q 1084 615 1006 660 q 929 709 830 709 q 714 709 623 643 q 621 641 620 639 q 618 637 618 637 q 608 644 598 650 q 589 655 580 660 q 503 709 407 709 q 288 709 200 643 q 108 578 76 465 q 62 426 61 389 q 55 344 55 260 l 55 0 l 330 0 l 330 314 q 330 375 348 404 q 366 432 407 432 q 436 432 459 408 q 481 383 481 352 l 481 299 l 481 260 l 481 0 l 754 0 l 754 307 q 755 312 756 322 q 756 332 756 346 l 756 348 q 762 388 774 404 q 790 432 830 432 q 862 432 885 408 q 907 383 907 352 z"},"#":{"x_min":0,"x_max":556,"ha":556,"o":"m 50 -12 l 93 196 l 10 196 l 10 269 l 107 269 l 144 446 l 10 446 l 10 519 l 158 519 l 201 728 l 274 728 l 231 519 l 385 519 l 428 728 l 501 728 l 459 519 l 543 519 l 543 446 l 444 446 l 408 269 l 543 269 l 543 196 l 393 196 l 351 -12 l 277 -12 l 319 196 l 166 196 l 124 -12 z m 181 269 l 334 269 l 371 446 l 217 446 z"},",":{"x_min":0,"x_max":277,"ha":277,"o":"m 89 0 l 89 100 l 189 100 l 189 0 q 189 -55 170 -89 q 150 -123 107 -142 l 83 -104 q 111 -92 124 -68 q 137 -44 139 0 z"},"n":{"x_min":0,"x_max":848,"ha":848,"o":"m 516 2 q 619 19 694 94 q 791 188 791 346 q 791 392 779 439 q 769 482 744 529 q 698 610 615 660 q 538 709 442 709 q 323 709 235 643 q 143 578 111 465 q 97 426 96 389 q 90 344 90 260 l 90 0 l 365 0 l 365 314 q 365 375 383 404 q 401 432 442 432 q 471 432 494 408 q 516 383 516 352 z"},"h":{"x_min":0,"x_max":779,"ha":779,"o":"m 31 2 l 308 2 l 308 350 q 308 383 332 406 q 351 430 385 430 q 422 430 443 402 q 461 373 461 320 l 461 0 q 564 18 638 92 q 736 187 736 344 q 736 392 724 439 q 717 462 708 484 q 700 507 689 529 q 634 615 560 660 q 480 707 385 707 q 363 707 344 705 q 325 703 308 699 l 308 957 l 31 957 z"},"z":{"x_min":0,"x_max":802,"ha":802,"o":"m 416 0 q 565 0 668 86 q 741 147 760 242 l 525 242 q 503 242 492 250 q 481 256 481 268 q 481 274 486 281 q 486 284 502 291 l 543 311 q 674 365 721 412 q 760 457 760 518 q 760 605 676 656 q 594 705 441 705 l 88 705 l 88 482 l 295 482 q 312 482 322 475 q 334 464 334 455 q 334 449 328 443 q 323 438 313 434 l 275 418 l 272 416 q 43 311 43 201 q 43 147 74 109 q 102 66 158 39 q 203 17 256 10 q 283 4 321 2 q 359 0 416 0 z"},"B":{"x_min":0,"x_max":842,"ha":842,"o":"m 513 357 q 513 323 489 301 q 468 277 437 277 q 396 277 378 305 q 360 330 360 393 l 360 969 l 85 969 l 85 449 q 85 404 86 372 q 87 340 89 320 q 91 303 95 284 q 99 266 105 244 q 138 130 228 66 q 315 0 435 0 q 501 0 569 27 q 628 50 685 104 q 732 151 761 221 q 786 280 786 357 q 786 517 689 617 q 615 686 513 707 z"},"K":{"x_min":0,"x_max":762,"ha":762,"o":"m 60 0 l 306 0 l 306 143 q 306 194 322 223 q 338 248 374 248 q 400 248 421 227 q 441 207 441 176 l 441 2 q 537 20 601 84 q 668 151 685 248 q 685 330 654 373 q 622 418 554 439 q 568 447 580 456 q 593 465 603 475 q 611 486 618 498 q 626 510 632 525 l 705 709 l 412 709 l 373 598 q 355 546 343 533 q 330 520 314 520 l 306 520 l 306 855 l 60 855 z"},"R":{"x_min":0,"x_max":734,"ha":734,"o":"m 726 430 q 724 438 722 446 q 719 455 719 465 q 683 574 596 643 q 501 709 387 709 q 290 709 211 660 q 128 610 84 529 q 61 490 47 439 q 35 392 35 344 q 35 190 133 92 q 207 18 312 0 l 312 350 q 312 385 334 406 q 353 430 387 430 z"},"T":{"x_min":0,"x_max":800,"ha":800,"o":"m 756 281 l 324 281 l 324 467 l 479 467 l 479 707 l 324 707 l 324 900 l 45 900 l 45 285 q 45 277 49 268 q 68 167 139 100 q 222 15 344 2 q 344 2 346 1 q 348 0 350 0 l 395 0 l 463 0 l 463 6 q 469 6 476 8 q 484 10 492 12 q 515 19 538 28 q 561 37 584 49 q 665 95 717 180 q 746 230 756 281 z"},"P":{"x_min":0,"x_max":767,"ha":767,"o":"m 473 352 l 473 0 q 580 20 649 92 q 748 188 748 352 q 748 420 721 488 q 692 554 645 605 q 619 630 590 649 q 561 668 529 682 q 461 709 397 709 q 279 709 188 643 q 100 579 65 465 q 54 431 49 387 q 47 365 46 334 q 45 302 45 260 l 45 -259 l 320 -259 l 320 316 q 320 375 338 402 q 356 430 397 430 q 426 430 451 408 q 473 383 473 352 z"},"|":{"x_min":0,"x_max":259,"ha":259,"o":"m 92 -210 l 92 728 l 168 728 l 168 -210 z"},"t":{"x_min":0,"x_max":800,"ha":800,"o":"m 756 281 l 324 281 l 324 467 l 479 467 l 479 707 l 324 707 l 324 900 l 45 900 l 45 285 q 45 277 49 268 q 68 167 139 100 q 222 15 344 2 q 344 2 346 1 q 348 0 350 0 l 395 0 l 463 0 l 463 6 q 469 6 476 8 q 484 10 492 12 q 515 19 538 28 q 561 37 584 49 q 665 95 717 180 q 746 230 756 281 z"},"M":{"x_min":0,"x_max":1208,"ha":1208,"o":"m 906 2 q 1009 20 1083 94 q 1181 192 1181 346 q 1181 392 1169 439 q 1163 463 1154 484 q 1144 506 1134 529 q 1083 615 1005 660 q 928 709 829 709 q 713 709 622 643 q 620 641 618 639 q 617 637 617 637 q 607 644 598 650 q 588 655 579 660 q 502 709 406 709 q 287 709 199 643 q 107 578 75 465 q 61 426 60 389 q 54 344 54 260 l 54 0 l 329 0 l 329 314 q 329 375 347 404 q 365 432 406 432 q 435 432 458 408 q 480 383 480 352 l 480 299 l 480 260 l 480 0 l 753 0 l 753 307 q 754 312 754 322 q 755 332 755 346 l 755 348 q 761 388 773 404 q 789 432 829 432 q 861 432 884 408 q 906 383 906 352 z"},"g":{"x_min":0,"x_max":784,"ha":784,"o":"m 47 422 q 39 385 39 344 q 39 190 137 92 q 211 18 316 0 l 316 350 l 316 355 q 316 385 338 406 q 352 422 371 428 q 379 430 391 430 q 428 430 449 402 q 449 396 452 394 q 455 391 457 387 q 467 360 467 326 l 467 320 l 467 51 q 462 -12 432 -38 q 395 -67 309 -67 l 84 -67 l 84 -302 l 123 -302 l 210 -302 l 302 -302 l 355 -302 q 558 -297 648 -210 q 742 -119 742 74 l 742 258 l 742 283 l 742 309 l 742 344 q 742 393 730 438 q 727 447 724 457 q 721 467 719 479 q 680 582 600 641 q 511 707 393 707 l 381 707 q 290 702 215 660 q 152 621 117 574 q 88 536 66 486 q 61 475 56 458 q 52 442 47 422 z"},"j":{"x_min":0,"x_max":751,"ha":751,"o":"m 707 -93 l 707 -87 l 707 623 l 429 623 l 429 -30 q 429 -64 414 -77 q 395 -93 357 -93 l 238 -93 l 5 -93 q 21 -197 96 -272 q 189 -370 347 -370 q 396 -370 443 -358 q 466 -351 489 -342 q 512 -334 535 -323 q 616 -272 668 -194 q 668 -187 687 -150 q 707 -112 707 -93 z m 461 885 q 461 835 492 803 q 524 768 566 768 q 608 768 640 801 q 672 835 672 885 q 672 935 640 967 q 608 1000 566 1000 q 525 1000 492 967 q 461 933 461 885 z"},"i":{"x_min":0,"x_max":406,"ha":406,"o":"m 310 707 q 262 695 209 668 q 126 616 80 535 q 59 498 43 443 q 31 396 31 348 q 31 188 131 94 q 202 18 310 0 z m 66 852 q 66 803 95 768 q 129 734 170 734 q 213 734 246 768 q 275 803 275 852 q 275 899 246 934 q 214 967 170 967 q 129 967 95 934 q 66 899 66 852 z"},"y":{"x_min":0,"x_max":761,"ha":761,"o":"m 512 0 q 524 2 535 8 q 546 14 557 20 q 639 69 684 152 q 705 189 721 242 q 733 288 733 338 q 733 487 635 590 q 561 664 456 682 l 456 332 q 456 293 434 275 q 413 252 382 252 q 339 252 323 279 q 305 304 305 361 l 305 682 q 200 664 126 590 q 28 487 28 338 q 28 288 40 242 q 54 190 77 152 q 121 69 204 20 q 226 8 237 2 l 237 -317 l 512 -317 z"},"@":{"x_min":0,"x_max":1087,"ha":1087,"o":"m 604 80 q 572 43 533 21 q 494 -1 454 -1 q 411 -1 370 24 q 329 49 303 102 q 277 155 277 218 q 277 295 317 373 q 357 451 416 490 q 475 529 531 529 q 573 529 612 507 q 650 485 678 439 l 695 515 l 782 515 l 712 188 q 697 119 697 112 q 697 99 707 90 q 717 80 731 80 q 757 80 799 109 q 855 148 888 214 q 920 280 920 350 q 920 431 878 502 q 836 573 754 616 q 671 658 571 658 q 456 658 362 604 q 267 551 215 451 q 163 351 163 237 q 163 117 215 30 q 267 -56 366 -97 q 464 -138 584 -138 q 712 -138 798 -95 q 885 -52 928 9 l 1016 9 q 991 -42 930 -95 q 870 -148 786 -179 q 703 -210 585 -210 q 477 -210 386 -182 q 294 -155 230 -99 q 165 -43 132 30 q 91 122 91 229 q 91 348 140 456 q 200 588 310 658 q 419 729 575 729 q 696 729 792 680 q 889 630 945 532 q 992 447 992 348 q 992 207 892 97 q 804 -2 698 -2 q 664 -2 644 8 q 623 19 613 38 q 607 50 604 80 z m 368 212 q 368 145 400 108 q 431 71 472 71 q 499 71 530 88 q 560 104 588 136 q 615 168 632 218 q 650 267 650 317 q 650 383 617 420 q 584 457 537 457 q 506 457 478 441 q 451 425 425 390 q 399 354 384 304 q 368 254 368 212 z"},".":{"x_min":0,"x_max":277,"ha":277,"o":"m 91 0 l 91 100 l 191 100 l 191 0 z"},"p":{"x_min":0,"x_max":767,"ha":767,"o":"m 473 352 l 473 0 q 580 20 649 92 q 748 188 748 352 q 748 420 721 488 q 692 554 645 605 q 619 630 590 649 q 561 668 529 682 q 461 709 397 709 q 279 709 188 643 q 100 579 65 465 q 54 431 49 387 q 47 365 46 334 q 45 302 45 260 l 45 -259 l 320 -259 l 320 316 q 320 375 338 402 q 356 430 397 430 q 426 430 451 408 q 473 383 473 352 z"},"X":{"x_min":0,"x_max":807,"ha":807,"o":"m 405 592 q 365 632 318 660 q 298 671 276 680 q 253 688 228 695 q 181 709 132 709 l 50 709 l 50 430 l 109 430 q 162 430 191 412 q 220 395 220 354 q 220 320 195 301 q 171 277 138 277 l 50 277 l 50 0 l 132 0 q 181 0 228 12 q 283 27 318 49 q 362 70 405 117 q 444 75 493 49 q 531 26 583 12 q 629 0 679 0 l 761 0 l 761 277 l 673 277 q 640 277 616 301 q 593 321 593 354 q 593 392 620 412 q 650 430 702 430 l 761 430 l 761 709 l 679 709 q 628 709 583 695 q 538 685 493 660 q 466 643 444 626 q 422 609 405 592 z"},"*":{"x_min":0,"x_max":389,"ha":389,"o":"m 31 584 l 54 654 q 131 626 167 606 q 157 695 157 728 l 228 728 q 226 680 216 607 q 267 632 332 654 l 354 584 q 292 564 232 557 q 262 531 316 465 l 258 423 q 229 462 191 528 q 155 459 127 423 l 70 465 q 126 535 151 557 q 88 569 31 584 z"},"Y":{"x_min":0,"x_max":761,"ha":761,"o":"m 512 0 q 524 2 535 8 q 546 14 557 20 q 639 69 684 152 q 705 189 721 242 q 733 288 733 338 q 733 487 635 590 q 561 664 456 682 l 456 332 q 456 293 434 275 q 413 252 382 252 q 339 252 323 279 q 305 304 305 361 l 305 682 q 200 664 126 590 q 28 487 28 338 q 28 288 40 242 q 54 190 77 152 q 121 69 204 20 q 226 8 237 2 l 237 -317 l 512 -317 z"},"c":{"x_min":0,"x_max":777,"ha":777,"o":"m 10 354 q 10 257 57 178 q 108 94 190 49 q 226 27 281 12 q 327 0 375 0 q 531 0 629 98 q 700 169 723 277 l 369 277 q 335 277 313 301 q 289 320 289 354 q 289 393 317 412 q 345 430 401 430 l 723 430 q 700 536 629 609 q 532 709 375 709 q 326 709 281 695 q 257 688 234 680 q 212 671 190 660 q 108 614 57 531 q 10 448 10 354 z"},"!":{"x_min":0,"x_max":277,"ha":277,"o":"m 113 178 l 86 557 l 86 716 l 195 716 l 195 557 l 169 178 z m 90 0 l 90 100 l 191 100 l 191 0 z"},"/":{"x_min":0,"x_max":277,"ha":277,"o":"m 0 -12 l 208 728 l 278 728 l 71 -12 z"},"[":{"x_min":0,"x_max":333,"ha":333,"o":"m 23 -199 l 23 716 l 217 716 l 217 643 l 111 643 l 111 -126 l 217 -126 l 217 -199 z"},"6":{"x_min":0,"x_max":583,"ha":583,"o":"m 329 215 q 315 201 292 201 q 267 201 253 215 q 239 229 239 256 q 239 273 253 299 q 255 303 256 306 q 258 308 259 309 l 466 709 l 233 709 l 83 424 q 53 365 44 328 q 30 286 30 242 q 30 193 48 150 q 70 99 100 72 q 135 36 182 20 q 227 0 280 0 q 396 0 475 74 q 551 150 551 268 q 551 347 507 402 q 491 423 452 449 z"},"r":{"x_min":0,"x_max":734,"ha":734,"o":"m 726 430 q 724 438 722 446 q 719 455 719 465 q 683 574 596 643 q 501 709 387 709 q 290 709 211 660 q 128 610 84 529 q 61 490 47 439 q 35 392 35 344 q 35 190 133 92 q 207 18 312 0 l 312 350 q 312 385 334 406 q 353 430 387 430 z"},"2":{"x_min":0,"x_max":602,"ha":602,"o":"m 152 285 l 277 424 q 268 430 256 445 q 250 457 250 471 q 250 492 264 506 q 278 520 297 520 q 318 520 330 506 q 344 492 344 475 q 344 453 320 428 l 318 426 l 88 170 q 59 138 53 119 q 41 98 41 76 q 41 44 61 21 q 82 0 115 0 l 559 0 l 559 195 l 369 195 l 432 258 q 492 323 520 377 q 547 434 547 494 q 547 590 477 648 q 407 709 295 709 q 189 709 119 645 q 51 582 51 484 q 51 423 76 377 q 101 325 152 285 z"},"{":{"x_min":0,"x_max":333,"ha":333,"o":"m 28 299 q 65 300 89 319 q 113 338 120 372 q 128 406 128 488 q 129 569 132 595 q 136 636 148 661 q 160 686 178 700 q 195 715 223 723 q 241 728 283 728 l 311 728 l 311 651 l 295 651 q 245 651 228 633 q 211 615 211 551 q 211 423 206 390 q 197 337 176 309 q 155 281 109 259 q 163 236 187 190 q 211 144 211 39 q 211 -56 213 -74 q 217 -107 233 -120 q 249 -134 295 -134 l 311 -134 l 311 -210 l 283 -210 q 235 -210 214 -203 q 183 -191 162 -166 q 142 -141 136 -102 q 129 -64 128 24 q 128 112 120 146 q 113 179 89 198 q 65 218 28 219 z"},"9":{"x_min":0,"x_max":583,"ha":583,"o":"m 254 492 q 264 508 291 508 q 316 508 330 494 q 345 474 345 453 q 345 438 330 410 l 324 398 l 117 0 l 349 0 l 500 283 q 513 309 523 334 q 533 358 541 381 q 546 403 549 424 q 552 445 552 467 q 552 513 535 559 q 517 598 482 637 q 446 672 400 689 q 346 709 302 709 q 183 709 107 633 q 31 560 31 441 q 31 360 76 305 q 102 275 131 260 z"},"I":{"x_min":0,"x_max":432,"ha":432,"o":"m 334 707 q 286 695 233 668 q 150 616 104 535 q 83 498 67 443 q 55 396 55 348 q 55 188 155 94 q 226 18 334 0 z m 90 852 q 90 803 119 768 q 153 734 194 734 q 237 734 270 768 q 299 803 299 852 q 299 899 270 934 q 238 967 194 967 q 153 967 119 934 q 90 899 90 852 z"},"H":{"x_min":0,"x_max":831,"ha":831,"o":"m 83 2 l 360 2 l 360 350 q 360 383 384 406 q 403 430 437 430 q 474 430 495 402 q 513 373 513 320 l 513 0 q 616 18 690 92 q 788 187 788 344 q 788 392 776 439 q 769 462 760 484 q 752 507 741 529 q 686 615 612 660 q 532 707 437 707 q 415 707 396 705 q 377 703 360 699 l 360 957 l 83 957 z"},"4":{"x_min":0,"x_max":618,"ha":618,"o":"m 290 0 l 503 0 l 503 141 l 583 141 l 583 328 l 503 328 l 503 709 l 314 393 l 314 311 l 224 311 l 458 697 l 261 697 l 42 334 q 38 327 34 317 q 29 307 23 293 q 17 270 17 252 q 17 197 54 170 q 92 141 160 141 l 290 141 z"},"~":{"x_min":0,"x_max":583,"ha":583,"o":"m 42 272 l 42 372 q 94 431 178 431 q 208 431 240 422 q 272 414 332 388 q 365 374 382 370 q 399 365 416 365 q 448 365 482 384 q 516 403 542 432 l 542 329 q 511 299 479 286 q 447 273 407 273 q 377 273 350 280 q 324 287 266 312 q 208 338 170 338 q 139 338 111 325 q 83 312 42 272 z"},"D":{"x_min":0,"x_max":769,"ha":769,"o":"m 294 357 l 294 709 q 191 691 119 619 q 19 520 19 359 q 19 287 46 221 q 71 157 123 104 q 172 52 238 27 q 304 0 373 0 q 491 0 580 66 q 669 129 703 244 q 713 283 718 322 q 724 362 724 451 l 724 973 l 447 973 l 447 395 q 447 332 429 307 q 413 279 371 279 q 339 279 318 301 q 294 323 294 357 z"},"^":{"x_min":0,"x_max":469,"ha":469,"o":"m 117 337 l 26 337 l 199 728 l 270 728 l 443 337 l 354 337 l 234 628 z"},"0":{"x_min":0,"x_max":625,"ha":625,"o":"m 67 480 l 67 229 q 67 131 139 64 q 212 0 323 0 q 431 0 505 64 q 577 131 577 229 l 577 480 q 577 578 505 643 q 431 709 323 709 q 209 709 139 643 q 67 578 67 480 z m 366 250 q 366 226 354 213 q 342 199 323 199 q 304 199 290 213 q 278 226 278 250 l 278 469 q 278 492 292 506 q 301 520 323 520 q 342 520 354 506 q 366 489 366 469 z"},"F":{"x_min":0,"x_max":763,"ha":763,"o":"m 320 617 l 320 621 q 320 651 338 668 q 352 682 393 682 l 488 682 l 756 682 q 733 790 664 861 q 566 959 410 959 q 361 959 315 947 q 270 937 225 912 q 143 863 92 783 q 45 700 45 605 l 45 604 l 45 0 l 320 0 l 320 408 l 488 408 l 488 617 z"},"`":{"x_min":0,"x_max":333,"ha":333,"o":"m 227 583 l 156 583 l 43 720 l 161 720 z"},"k":{"x_min":0,"x_max":760,"ha":760,"o":"m 60 0 l 306 0 l 306 143 q 306 194 322 223 q 338 248 374 248 q 400 248 421 227 q 441 207 441 176 l 441 2 q 537 20 601 84 q 668 151 685 248 q 685 330 654 373 q 622 418 554 439 q 568 447 580 456 q 593 465 603 475 q 611 486 618 498 q 626 510 632 525 l 705 709 l 412 709 l 373 598 q 355 546 343 533 q 330 520 314 520 l 306 520 l 306 855 l 60 855 z"},"u":{"x_min":0,"x_max":805,"ha":805,"o":"m 394 0 q 488 0 571 47 q 653 98 698 180 q 723 225 733 270 q 747 315 747 365 q 747 516 649 617 q 576 688 470 709 l 470 357 q 470 323 448 301 q 425 277 396 277 q 355 277 337 307 q 319 332 319 389 l 319 709 q 211 688 140 617 q 42 516 42 365 q 42 316 54 270 q 68 218 91 180 q 134 98 218 47 q 301 0 394 0 z"},"]":{"x_min":0,"x_max":277,"ha":277,"o":"m 213 -199 l 19 -199 l 19 -126 l 125 -126 l 125 643 l 19 643 l 19 716 l 213 716 z"},"U":{"x_min":0,"x_max":806,"ha":806,"o":"m 395 0 q 489 0 572 47 q 654 98 699 180 q 724 225 734 270 q 748 315 748 365 q 748 516 650 617 q 577 688 471 709 l 471 357 q 471 323 449 301 q 426 277 397 277 q 356 277 338 307 q 320 332 320 389 l 320 709 q 212 688 141 617 q 43 516 43 365 q 43 316 55 270 q 69 218 92 180 q 135 98 219 47 q 302 0 395 0 z"},"o":{"x_min":0,"x_max":758,"ha":758,"o":"m 311 355 q 311 388 331 408 q 347 430 378 430 q 409 430 429 410 q 448 384 448 355 q 448 326 429 301 q 407 279 378 279 q 352 279 331 301 q 311 323 311 355 z m 34 354 q 34 284 59 219 q 84 153 136 104 q 188 49 247 25 q 313 0 378 0 q 446 0 511 27 q 572 52 624 104 q 649 129 667 157 q 685 185 698 217 q 723 276 723 354 q 723 428 698 488 q 671 553 622 605 q 577 653 511 682 q 446 709 378 709 q 313 709 247 682 q 182 653 136 605 q 82 550 59 490 q 34 421 34 354 z"},"N":{"x_min":0,"x_max":890,"ha":890,"o":"m 509 2 q 612 19 687 94 q 784 188 784 346 q 784 392 772 439 q 762 482 737 529 q 691 610 608 660 q 531 709 435 709 q 316 709 228 643 q 136 578 104 465 q 90 426 89 389 q 83 344 83 260 l 83 0 l 358 0 l 358 314 q 358 375 376 404 q 394 432 435 432 q 464 432 487 408 q 509 383 509 352 z"},"+":{"x_min":0,"x_max":583,"ha":583,"o":"m 250 116 l 250 312 l 56 312 l 56 394 l 250 394 l 250 589 l 333 589 l 333 394 l 528 394 l 528 312 l 333 312 l 333 116 z"},"G":{"x_min":0,"x_max":784,"ha":784,"o":"m 47 422 q 39 385 39 344 q 39 190 137 92 q 211 18 316 0 l 316 350 l 316 355 q 316 385 338 406 q 352 422 371 428 q 379 430 391 430 q 428 430 449 402 q 449 396 452 394 q 455 391 457 387 q 467 360 467 326 l 467 320 l 467 51 q 462 -12 432 -38 q 395 -67 309 -67 l 84 -67 l 84 -302 l 123 -302 l 210 -302 l 302 -302 l 355 -302 q 558 -297 648 -210 q 742 -119 742 74 l 742 258 l 742 283 l 742 309 l 742 344 q 742 393 730 438 q 727 447 724 457 q 721 467 719 479 q 680 582 600 641 q 511 707 393 707 l 381 707 q 290 702 215 660 q 152 621 117 574 q 88 536 66 486 q 61 475 56 458 q 52 442 47 422 z"},"q":{"x_min":0,"x_max":791,"ha":791,"o":"m 333 348 q 333 379 355 404 q 377 428 410 428 q 447 428 468 400 q 486 373 486 313 l 486 -263 l 761 -263 l 761 256 q 761 344 755 385 q 750 419 740 463 q 706 572 617 641 q 529 705 410 705 q 333 705 275 678 q 243 665 214 646 q 186 627 160 602 q 111 550 85 484 q 58 416 58 348 q 58 188 158 88 q 231 13 333 0 z"},"d":{"x_min":0,"x_max":769,"ha":769,"o":"m 294 357 l 294 709 q 191 691 119 619 q 19 520 19 359 q 19 287 46 221 q 71 157 123 104 q 172 52 238 27 q 304 0 373 0 q 491 0 580 66 q 669 129 703 244 q 713 283 718 322 q 724 362 724 451 l 724 973 l 447 973 l 447 395 q 447 332 429 307 q 413 279 371 279 q 339 279 318 301 q 294 323 294 357 z"},"1":{"x_min":0,"x_max":393,"ha":393,"o":"m 121 0 l 340 0 l 340 709 l 29 709 l 29 529 l 121 529 z"},"5":{"x_min":0,"x_max":575,"ha":575,"o":"m 272 0 q 389 0 466 63 q 536 123 536 236 q 536 338 477 400 q 415 463 315 463 l 278 463 l 278 510 l 489 510 l 489 691 l 89 691 l 89 287 l 249 287 q 275 287 292 275 q 307 261 307 240 q 307 218 294 205 q 277 195 249 195 l 67 195 l 34 195 q 47 119 100 68 q 171 0 272 0 z"}}}
